HIERARCHY
ROOT hip
{
  OFFSET 0 0 0
  CHANNELS 6 Xposition Yposition Zposition Zrotation Yrotation Xrotation
  JOINT abdomen
  {
    OFFSET 0 20.6881 -0.73152
    CHANNELS 3 Zrotation Xrotation Yrotation
    JOINT chest
    {
      OFFSET 0 11.7043 -0.48768
      CHANNELS 3 Zrotation Xrotation Yrotation
      JOINT neck
      {
        OFFSET 0 22.1894 -2.19456
        CHANNELS 3 Zrotation Xrotation Yrotation
        JOINT head
        {
          OFFSET -0.24384 7.07133 1.2192
          CHANNELS 3 Zrotation Xrotation Yrotation
          JOINT leftEye
          {
            OFFSET 4.14528 8.04674 8.04672
            CHANNELS 3 Zrotation Xrotation Yrotation
            End Site
            {
              OFFSET 1 0 0
            }
          }
          JOINT rightEye
          {
            OFFSET -3.6576 8.04674 8.04672
            CHANNELS 3 Zrotation Xrotation Yrotation
            End Site
            {
              OFFSET 1 0 0
            }
          }
        }
      }
      JOINT rCollar
      {
        OFFSET -2.68224 19.2634 -4.8768
        CHANNELS 3 Zrotation Xrotation Yrotation
        JOINT rShldr
        {
          OFFSET -8.77824 -1.95073 1.46304
          CHANNELS 3 Zrotation Xrotation Yrotation
          JOINT rForeArm
          {
            OFFSET -28.1742 -1.7115 0.48768
            CHANNELS 3 Zrotation Xrotation Yrotation
            JOINT rHand
            {
              OFFSET -22.5879 0.773209 7.07136
              CHANNELS 3 Zrotation Xrotation Yrotation
              JOINT rThumb1
              {
                OFFSET -1.2192 -0.487915 3.41376
                CHANNELS 3 Zrotation Xrotation Yrotation
                JOINT rThumb2
                {
                  OFFSET -3.37035 -0.52449 3.41376
                  CHANNELS 3 Zrotation Xrotation Yrotation
                  End Site
                  {
                    OFFSET -1.78271 -1.18214 1.43049
                  }
                }
              }
              JOINT rIndex1
              {
                OFFSET -7.75947 0.938293 5.60832
                CHANNELS 3 Zrotation Xrotation Yrotation
                JOINT rIndex2
                {
                  OFFSET -2.54057 -0.884171 1.56538
                  CHANNELS 3 Zrotation Xrotation Yrotation
                  End Site
                  {
                    OFFSET -1.62519 -0.234802 1.16502
                  }
                }
              }
              JOINT rMid1
              {
                OFFSET -8.24714 1.18213 3.41376
                CHANNELS 3 Zrotation Xrotation Yrotation
                JOINT rMid2
                {
                  OFFSET -3.10165 -0.590103 1.0647
                  CHANNELS 3 Zrotation Xrotation Yrotation
                  End Site
                  {
                    OFFSET -2.48547 -0.328903 0.83742
                  }
                }
              }
              JOINT rRing1
              {
                OFFSET -8.82822 0.546677 1.51678
                CHANNELS 3 Zrotation Xrotation Yrotation
                JOINT rRing2
                {
                  OFFSET -2.60934 -0.819778 -0.0198488
                  CHANNELS 3 Zrotation Xrotation Yrotation
                  End Site
                  {
                    OFFSET -2.33842 -0.294052 0.168128
                  }
                }
              }
              JOINT rPinky1
              {
                OFFSET -8.27202 -0.0477905 -0.4584
                CHANNELS 3 Zrotation Xrotation Yrotation
                JOINT rPinky2
                {
                  OFFSET -1.82734 -0.647385 -0.700984
                  CHANNELS 3 Zrotation Xrotation Yrotation
                  End Site
                  {
                    OFFSET -1.69225 -0.51767 -0.607171
                  }
                }
              }
            }
          }
        }
      }
      JOINT lCollar
      {
        OFFSET 2.68224 19.2634 -4.8768
        CHANNELS 3 Zrotation Xrotation Yrotation
        JOINT lShldr
        {
          OFFSET 8.77824 -1.95073 1.46304
          CHANNELS 3 Zrotation Xrotation Yrotation
          JOINT lForeArm
          {
            OFFSET 28.1742 -1.7115 0.48768
            CHANNELS 3 Zrotation Xrotation Yrotation
            JOINT lHand
            {
              OFFSET 22.5879 0.773209 7.07136
              CHANNELS 3 Zrotation Xrotation Yrotation
              JOINT lThumb1
              {
                OFFSET 1.2192 -0.487915 3.41376
                CHANNELS 3 Zrotation Xrotation Yrotation
                JOINT lThumb2
                {
                  OFFSET 3.37035 -0.52449 3.41376
                  CHANNELS 3 Zrotation Xrotation Yrotation
                  End Site
                  {
                    OFFSET 1.78271 -1.18214 1.43049
                  }
                }
              }
              JOINT lIndex1
              {
                OFFSET 7.75947 0.938293 5.60832
                CHANNELS 3 Zrotation Xrotation Yrotation
                JOINT lIndex2
                {
                  OFFSET 2.54057 -0.884171 1.56538
                  CHANNELS 3 Zrotation Xrotation Yrotation
                  End Site
                  {
                    OFFSET 1.62519 -0.234802 1.16502
                  }
                }
              }
              JOINT lMid1
              {
                OFFSET 8.24714 1.18213 3.41376
                CHANNELS 3 Zrotation Xrotation Yrotation
                JOINT lMid2
                {
                  OFFSET 3.10165 -0.590103 1.0647
                  CHANNELS 3 Zrotation Xrotation Yrotation
                  End Site
                  {
                    OFFSET 2.48547 -0.328903 0.83742
                  }
                }
              }
              JOINT lRing1
              {
                OFFSET 8.82822 0.546677 1.51678
                CHANNELS 3 Zrotation Xrotation Yrotation
                JOINT lRing2
                {
                  OFFSET 2.60934 -0.819778 -0.0198488
                  CHANNELS 3 Zrotation Xrotation Yrotation
                  End Site
                  {
                    OFFSET 2.33842 -0.294052 0.168128
                  }
                }
              }
              JOINT lPinky1
              {
                OFFSET 8.27202 -0.0477905 -0.4584
                CHANNELS 3 Zrotation Xrotation Yrotation
                JOINT lPinky2
                {
                  OFFSET 1.82734 -0.647385 -0.700984
                  CHANNELS 3 Zrotation Xrotation Yrotation
                  End Site
                  {
                    OFFSET 1.69225 -0.51767 -0.607171
                  }
                }
              }
            }
          }
        }
      }
    }
  }
  JOINT rButtock
  {
    OFFSET -8.77824 4.35084 1.2192
    CHANNELS 3 Zrotation Xrotation Yrotation
    JOINT rThigh
    {
      OFFSET 0 -1.70687 -2.19456
      CHANNELS 3 Zrotation Xrotation Yrotation
      JOINT rShin
      {
        OFFSET 0 -36.8199 0.73152
        CHANNELS 3 Zrotation Xrotation Yrotation
        JOINT rFoot
        {
          OFFSET 0.73152 -45.1104 -5.12064
          CHANNELS 3 Zrotation Xrotation Yrotation
          End Site
          {
            OFFSET -1.1221 -3.69964 12.103
          }
        }
      }
    }
  }
  JOINT lButtock
  {
    OFFSET 8.77824 4.35084 1.2192
    CHANNELS 3 Zrotation Xrotation Yrotation
    JOINT lThigh
    {
      OFFSET 0 -1.70687 -2.19456
      CHANNELS 3 Zrotation Xrotation Yrotation
      JOINT lShin
      {
        OFFSET 0 -36.8199 0.73152
        CHANNELS 3 Zrotation Xrotation Yrotation
        JOINT lFoot
        {
          OFFSET -0.73152 -45.1104 -5.12064
          CHANNELS 3 Zrotation Xrotation Yrotation
          End Site
          {
            OFFSET 1.1221 -3.69964 12.103
          }
        }
      }
    }
  }
}
MOTION
Frames:	4
Frame Time:	0.00833333
50.3618 86.0053 -217.511 -182.128 -57.7004 182.682 3.67753 8.32529 7.57209 0.299314 -8.21365 2.1949 -5.8855 6.52108 -8.02757 -9.34089 -14.551 -16.6542 -0.0 0.0 0.0 -0.0 0.0 0.0 7.15193e-14 -1.83231e-12 7.53969e-13 59.3301 13.0628 28.9599 -16.2681 -8.93825 30.2419 -0.101165 9.60906 1.36075 -3.37901e-09 9.2836e-10 -3.18594e-09 -5.86259e-09 1.55129e-09 -5.45579e-09 -3.37901e-09 9.28372e-10 -3.18596e-09 7.73091 5.47488 0.417314 -3.37901e-09 9.28359e-10 -3.18594e-09 2.90554 0.965183 0.102902 -3.37901e-09 9.28362e-10 -3.18595e-09 10.2786 0.731801 0.0259123 -3.37902e-09 9.28363e-10 -3.18593e-09 2.22167 -0.733487 -0.20892 7.13619e-14 -1.83231e-12 7.53605e-13 -66.468 49.9357 -19.8772 23.7474 -18.6379 -48.7832 0.0177619 -3.69835 0.52052 -1.55782e-09 -2.90266e-10 -6.58394e-10 -2.69167e-09 -4.88216e-10 -1.15272e-09 -1.55782e-09 -2.90262e-10 -6.58384e-10 -7.73091 5.47488 -0.417314 -1.55782e-09 -2.90262e-10 -6.5839e-10 -2.90554 0.965183 -0.102902 -1.55782e-09 -2.90262e-10 -6.58392e-10 -10.2786 0.731801 -0.0259123 -1.55782e-09 -2.90262e-10 -6.584e-10 -2.22167 -0.733487 0.20892 -2.03217e-16 0.0 -3.88251e-19 -3.12701 -26.4644 -2.62103 -1.04445 60.2533 1.64536 -5.02052 -2.13541 -21.1607 2.03217e-16 0.0 3.88251e-19 -11.6354 -14.624 -20.9194 0.115671 25.0766 -0.326747 -0.235916 -17.2295 -2.19806
50.1865 85.9303 -217.609 -182.455 -59.5429 182.805 3.18435 8.49502 8.24244 0.166557 -8.28561 2.36535 -5.99836 5.97948 -7.28225 -8.88317 -13.9563 -14.967 -0.0 0.0 0.0 -0.0 0.0 0.0 6.1095e-14 -2.69597e-12 1.26493e-12 58.2548 14.7934 29.3972 -16.3462 -9.01246 30.4083 -0.175278 12.1691 1.73486 -6.72748e-09 -1.18343e-09 -4.32845e-09 -1.16637e-08 -2.15175e-09 -7.39227e-09 -6.72748e-09 -1.18342e-09 -4.32846e-09 7.73091 5.47488 0.417314 -6.72749e-09 -1.18343e-09 -4.32844e-09 2.90554 0.965183 0.102902 -6.72748e-09 -1.18343e-09 -4.32844e-09 10.2786 0.731801 0.0259123 -6.72749e-09 -1.18343e-09 -4.32843e-09 2.22167 -0.733487 -0.20892 6.09325e-14 -2.69596e-12 1.26457e-12 -64.3541 51.862 -21.9912 24.0237 -19.1455 -49.655 0.0195822 -3.96399 0.558003 -1.89626e-09 7.33266e-10 -1.74923e-09 -3.27293e-09 1.29111e-09 -3.04599e-09 -1.89625e-09 7.33272e-10 -1.74922e-09 -7.73091 5.47488 -0.417314 -1.89625e-09 7.33273e-10 -1.74922e-09 -2.90554 0.965183 -0.102902 -1.89626e-09 7.33272e-10 -1.74923e-09 -10.2786 0.731801 -0.0259123 -1.89625e-09 7.3327e-10 -1.74924e-09 -2.22167 -0.733487 0.20892 -2.03217e-16 0.0 -3.88251e-19 -2.97172 -27.0993 -1.9576 -1.12868 61.4904 1.73659 -4.96016 -3.09263 -19.4439 2.03217e-16 0.0 3.88251e-19 -11.8611 -14.3792 -21.2308 0.113673 25.1714 -0.314865 -0.768255 -17.24 -3.71492
50.0764 85.8549 -217.668 -182.797 -61.5695 183.118 2.87475 8.59363 8.72405 0.0192065 -8.33114 2.48653 -5.80558 5.43485 -6.46298 -8.74745 -13.438 -13.2495 -0.0 0.0 0.0 -0.0 0.0 0.0 5.26132e-14 -3.21754e-12 1.52045e-12 57.2035 16.3435 29.9167 -16.4416 -9.10408 30.6105 -0.259425 14.3504 2.06052 -8.52079e-09 -2.4206e-09 -4.92176e-09 -1.47716e-08 -4.31794e-09 -8.39707e-09 -8.52079e-09 -2.42059e-09 -4.92177e-09 7.73091 5.47488 0.417314 -8.52079e-09 -2.4206e-09 -4.92176e-09 2.90554 0.965183 0.102902 -8.52078e-09 -2.4206e-09 -4.92176e-09 10.2786 0.731801 0.0259123 -8.5208e-09 -2.4206e-09 -4.92174e-09 2.22167 -0.733487 -0.20892 5.24478e-14 -3.21752e-12 1.52011e-12 -61.8998 53.6194 -24.4189 24.2362 -19.5449 -50.3653 0.021326 -4.16529 0.586437 -1.98334e-09 1.44979e-09 -2.39772e-09 -3.42105e-09 2.53558e-09 -4.17112e-09 -1.98334e-09 1.44979e-09 -2.39771e-09 -7.73091 5.47488 -0.417314 -1.98334e-09 1.44979e-09 -2.39771e-09 -2.90554 0.965183 -0.102902 -1.98334e-09 1.44979e-09 -2.39772e-09 -10.2786 0.731801 -0.0259123 -1.98334e-09 1.44979e-09 -2.39773e-09 -2.22167 -0.733487 0.20892 -2.03217e-16 0.0 -3.88251e-19 -2.69286 -27.6672 -1.33034 -1.19114 62.3534 1.80811 -4.93539 -4.0819 -18.0832 2.03217e-16 0.0 3.88251e-19 -11.9626 -14.2911 -21.5583 0.114197 25.3469 -0.308237 -1.36917 -17.2677 -5.38983
49.9741 85.7674 -217.74 -182.972 -63.656 183.321 2.81035 8.59269 8.96896 -0.163822 -8.32815 2.5451 -5.17404 4.86475 -5.54625 -9.05858 -13.0308 -11.4963 -0.0 0.0 0.0 -0.0 0.0 0.0 4.78954e-14 -3.23074e-12 1.3911e-12 56.1743 17.7014 30.552 -16.5622 -9.22106 30.8669 -0.335561 16.1437 2.33208 -8.0059e-09 -2.35447e-09 -4.71908e-09 -1.38828e-08 -4.19388e-09 -8.05171e-09 -8.0059e-09 -2.35446e-09 -4.71908e-09 7.73091 5.47488 0.417314 -8.0059e-09 -2.35447e-09 -4.71907e-09 2.90554 0.965183 0.102902 -8.00589e-09 -2.35447e-09 -4.71907e-09 10.2786 0.731801 0.0259123 -8.00591e-09 -2.35447e-09 -4.71906e-09 2.22167 -0.733487 -0.20892 4.77336e-14 -3.23073e-12 1.39079e-12 -58.8978 55.1611 -27.3833 24.3687 -19.7986 -50.8235 0.0233367 -4.32879 0.609564 -1.69504e-09 1.73228e-09 -2.38683e-09 -2.92216e-09 3.02393e-09 -4.15137e-09 -1.69503e-09 1.73229e-09 -2.38683e-09 -7.73091 5.47488 -0.417314 -1.69504e-09 1.73229e-09 -2.38683e-09 -2.90554 0.965183 -0.102902 -1.69504e-09 1.73229e-09 -2.38683e-09 -10.2786 0.731801 -0.0259123 -1.69504e-09 1.73229e-09 -2.38684e-09 -2.22167 -0.733487 0.20892 -2.03217e-16 0.0 -3.88251e-19 -2.26034 -28.2091 -0.796542 -1.22372 62.821 1.85324 -4.99092 -5.12271 -17.145 2.03217e-16 0.0 3.88251e-19 -11.9018 -14.4327 -21.8994 0.118378 25.6493 -0.308896 -2.08683 -17.2983 -7.34767
